<?xml version="1.0" encoding="UTF-8"?>
<svg version="1.1" xmlns="http://www.w3.org/2000/svg" width="598" height="598">
<path d="M0 0 C0.73642731 0.00060425 1.47285461 0.0012085 2.2315979 0.00183105 C12.03285822 0.02365096 21.61164209 0.26927243 31.31738281 1.80175781 C34.72404106 2.31555316 38.13888827 2.76302318 41.5546875 3.2109375 C42.24047379 3.30097046 42.92626007 3.39100342 43.63282776 3.48376465 C45.03350281 3.66764438 46.43418338 3.85148203 47.83486938 4.03527832 C53.18321237 4.74043148 58.52889979 5.46557944 63.875 6.1875 C63.875 6.8475 63.875 7.5075 63.875 8.1875 C62.8128125 8.57421875 61.750625 8.9609375 60.65625 9.359375 C50.03177129 13.24197107 50.03177129 13.24197107 39.875 18.1875 C39.01648438 18.65027344 38.15796875 19.11304687 37.2734375 19.58984375 C34.4664654 21.10932038 31.66860106 22.64357223 28.875 24.1875 C28.19671143 24.54569824 27.51842285 24.90389648 26.81958008 25.27294922 C21.30847175 28.23018726 16.36517681 31.59395774 11.4375 35.4375 C10.33390137 36.29021484 10.33390137 36.29021484 9.20800781 37.16015625 C3.52281567 41.592255 -1.91019881 46.20540799 -7.125 51.1875 C-7.970625 51.991875 -8.81625 52.79625 -9.6875 53.625 C-10.491875 54.470625 -11.29625 55.31625 -12.125 56.1875 C-12.74375 56.83460937 -13.3625 57.48171875 -14 58.1484375 C-18.79509524 63.30316488 -23.14510615 68.68941385 -27.375 74.3125 C-27.87008057 74.96903564 -28.36516113 75.62557129 -28.87524414 76.30200195 C-34.73196225 84.18608342 -39.4910106 92.54248675 -44.125 101.1875 C-44.7334375 102.29996094 -45.341875 103.41242188 -45.96875 104.55859375 C-52.72529521 116.96905943 -59.19404684 129.68295593 -64.2421875 142.89453125 C-65.26867104 145.56066327 -66.38352414 148.18281315 -67.5 150.8125 C-69.39323926 155.34608981 -71.18608554 159.91012214 -72.90625 164.51171875 C-73.16469696 165.20235916 -73.42314392 165.89299957 -73.68942261 166.60456848 C-76.36260114 173.77882404 -78.93919145 180.98643988 -81.48486328 188.20678711 C-82.25377559 190.3856991 -83.02717854 192.5629839 -83.80078125 194.74023438 C-86.45889005 202.25089218 -88.97964336 209.77662391 -91.28027344 217.40649414 C-92.34239171 220.90319624 -93.50499548 224.3547475 -94.6875 227.8125 C-96.39589025 232.86608474 -97.90706497 237.93359089 -99.2578125 243.09375 C-100.15013485 246.27717027 -101.14800477 249.41175635 -102.16674805 252.55639648 C-105.97286875 264.3147415 -109.10057608 276.20755406 -112.125 288.1875 C-112.53472306 289.78917338 -112.94485067 291.39074335 -113.35546875 292.9921875 C-114.80883874 298.70239836 -116.22874572 304.35741027 -117.125 310.1875 C-105.84087921 307.2226775 -94.64416145 304.14926077 -83.60375977 300.36865234 C-78.66396207 298.68221455 -73.70206893 297.13601116 -68.6875 295.6875 C-57.36486695 292.40497038 -46.09760398 288.96745714 -34.984375 285.02734375 C-33.94812988 284.66036377 -32.91188477 284.29338379 -31.84423828 283.9152832 C-29.81906686 283.19351428 -27.79647341 282.46446045 -25.77685547 281.72729492 C-24.85275879 281.39705322 -23.92866211 281.06681152 -22.9765625 280.7265625 C-22.16010254 280.42959473 -21.34364258 280.13262695 -20.50244141 279.82666016 C-17.94780976 279.13986352 -15.75829586 279.07219454 -13.125 279.1875 C-14.55469716 286.65346572 -16.2203224 294.04768672 -18 301.4375 C-18.26611084 302.54577148 -18.53222168 303.65404297 -18.80639648 304.79589844 C-20.42090787 311.45716235 -22.17664489 318.03582575 -24.12890625 324.60546875 C-25.68307277 330.19437346 -26.95134533 335.84869767 -28.26318359 341.49853516 C-29.660786 347.44239876 -31.26100169 353.22512198 -33.23046875 359.0078125 C-34.01160791 361.78443816 -34.54096304 364.44663639 -35.0234375 367.28515625 C-36.10872062 373.49186475 -37.79775133 379.45721381 -39.5625 385.5 C-41.75801905 393.16446921 -43.76638294 400.75246163 -45.32421875 408.5703125 C-46.59287539 414.30092739 -48.21568448 419.9314647 -49.78881836 425.5847168 C-51.58596264 432.08901162 -53.22074375 438.61534632 -54.75 445.1875 C-56.36068123 452.10904172 -58.15392807 458.93162403 -60.1640625 465.75 C-61.24688221 469.6235014 -62.16632621 473.51751992 -63.0625 477.4375 C-64.40835159 483.32045248 -65.90917545 489.13357525 -67.5625 494.9375 C-69.70393483 502.46137112 -71.54449046 510.03371995 -73.32006836 517.65136719 C-74.73054047 523.65681936 -76.35190569 529.56705182 -78.09765625 535.484375 C-79.38031411 540.10779572 -80.47348459 544.76529977 -81.5625 549.4375 C-83.81519595 559.10132832 -86.38849074 568.6504741 -89.125 578.1875 C-93.73089971 577.62125746 -97.28099628 576.35268864 -101.4375 574.3125 C-105.07269436 572.57677657 -108.57057257 570.94283263 -112.4375 569.8125 C-122.85518787 566.5509771 -132.68753624 560.70340552 -141.73046875 554.7109375 C-143.92063085 553.31752279 -146.09197967 552.16679394 -148.4375 551.0625 C-152.21725609 549.26518741 -154.96575442 546.92551284 -158.125 544.1875 C-159.79068112 543.18585926 -161.45747225 542.18606347 -163.125 541.1875 C-171.87546322 535.01070243 -180.02313302 528.1758905 -188.125 521.1875 C-189.32382813 520.17623047 -189.32382813 520.17623047 -190.546875 519.14453125 C-194.52457678 515.75750323 -197.78045566 512.21810472 -201.125 508.1875 C-202.23236179 507.20883885 -203.35869509 506.25135615 -204.5 505.3125 C-208.50989519 501.96518406 -211.76637296 498.17464204 -215.125 494.1875 C-215.96160156 493.22714844 -216.79820312 492.26679688 -217.66015625 491.27734375 C-223.89422681 484.08931697 -229.53374327 476.63000352 -234.96826172 468.82470703 C-236.7199204 466.3454704 -238.55428817 463.92876739 -240.375 461.5 C-244.15685554 456.29429846 -247.16741317 450.89190311 -250.125 445.1875 C-250.92928042 443.68788416 -251.73542389 442.18926671 -252.54296875 440.69140625 C-256.71029999 432.92755786 -260.77705253 425.22185224 -264 417.0078125 C-264.7588844 415.10533146 -265.57329541 413.22419855 -266.4375 411.3671875 C-274.32193422 394.2699633 -280.25412772 375.13709339 -282.79052734 356.47167969 C-283.18547598 353.7744976 -283.66314045 351.09715305 -284.14453125 348.4140625 C-286.48721864 335.11915619 -287.70240039 322.15071186 -288.03076172 308.66357422 C-288.15796547 305.3213451 -288.53190591 302.01370694 -288.875 298.6875 C-290.21497306 278.11997702 -286.15153435 256.27754243 -282.125 236.1875 C-281.96918457 235.38570312 -281.81336914 234.58390625 -281.65283203 233.7578125 C-279.39015618 222.22654593 -276.05294056 211.25337064 -272.125 200.1875 C-271.76277344 199.135625 -271.40054687 198.08375 -271.02734375 197 C-269.10188298 191.51204703 -266.86360919 186.24299413 -264.37109375 180.98828125 C-263.42429691 178.86021437 -262.58466581 176.68409958 -261.796875 174.4921875 C-259.92968315 169.44394193 -257.45485476 164.74966057 -254.9375 160 C-254.45063721 159.07670898 -253.96377441 158.15341797 -253.4621582 157.20214844 C-248.25421498 147.41446746 -242.49461941 138.06004731 -236.25390625 128.89453125 C-235.07196709 127.18173157 -235.07196709 127.18173157 -234.125 125.1875 C-233.465 125.1875 -232.805 125.1875 -232.125 125.1875 C-231.8775 124.465625 -231.63 123.74375 -231.375 123 C-229.6956769 119.22152302 -227.27900119 116.49364563 -224.5546875 113.41015625 C-223.97976562 112.75917969 -223.40484375 112.10820313 -222.8125 111.4375 C-222.21308594 110.75945312 -221.61367187 110.08140625 -220.99609375 109.3828125 C-218.43363821 106.37634066 -216.06394916 103.23646453 -213.703125 100.0703125 C-212.125 98.1875 -212.125 98.1875 -209.125 96.1875 C-208.691875 95.424375 -208.25875 94.66125 -207.8125 93.875 C-205.73223141 90.56197966 -203.1453459 88.65308849 -200.125 86.1875 C-199.444375 85.32125 -198.76375 84.455 -198.0625 83.5625 C-196.125 81.1875 -196.125 81.1875 -193.6875 79.75 C-190.42368099 77.75986645 -188.55370492 75.1144008 -186.125 72.1875 C-184.80852881 71.48812468 -183.47477849 70.82020867 -182.125 70.1875 C-181.3928125 69.44886719 -180.660625 68.71023437 -179.90625 67.94921875 C-176.97306544 65.0366324 -173.91084063 62.55546957 -170.625 60.0625 C-170.06941406 59.63324219 -169.51382813 59.20398437 -168.94140625 58.76171875 C-164.23183943 55.1602853 -159.68737355 52.25352446 -154.125 50.1875 C-154.125 49.5275 -154.125 48.8675 -154.125 48.1875 C-151.71718993 46.58434861 -149.31995523 45.12095875 -146.8125 43.6875 C-145.68497314 43.03297852 -145.68497314 43.03297852 -144.53466797 42.36523438 C-137.87775653 38.5378183 -131.10390873 34.93923935 -124.28393555 31.41210938 C-123.52250244 31.01830078 -122.76106934 30.62449219 -121.9765625 30.21875 C-120.96843506 29.70151367 -120.96843506 29.70151367 -119.93994141 29.17382812 C-117.88345819 28.09153032 -117.88345819 28.09153032 -115.125 26.1875 C-114.17625 25.94 -113.2275 25.6925 -112.25 25.4375 C-108.71650503 24.49789696 -105.6069612 23.02868418 -102.3203125 21.43359375 C-95.02555187 18.03440041 -87.53867524 15.43097914 -79.875 13 C-78.85386612 12.6725882 -78.85386612 12.6725882 -77.81210327 12.33856201 C-68.34280648 9.31425861 -59.05808282 6.84573495 -49.19287109 5.50585938 C-44.20360722 4.73773658 -39.26919376 3.60398276 -34.33520508 2.54345703 C-22.95421016 0.18503121 -11.57824545 -0.01761471 0 0 Z " fill="#75C165" transform="translate(289.125,0.8125)"/>
<path d="M0 0 C5.30052918 -0.71373462 8.32461404 1.07012004 12.42016602 4.17675781 C17.23073483 8.03327351 21.73187631 12.06008894 26.03515625 16.484375 C28.96071336 19.48900122 31.95927267 22.28088649 35.16015625 24.984375 C38.18851407 27.59951764 40.09086364 29.96613122 42.03515625 33.484375 C43.16298457 34.64537474 44.29559881 35.80243675 45.4609375 36.92578125 C52.37929038 43.77546562 58.7975563 51.26405464 64.03515625 59.484375 C64.03515625 60.144375 64.03515625 60.804375 64.03515625 61.484375 C64.69515625 61.484375 65.35515625 61.484375 66.03515625 61.484375 C67.33203125 63.35546875 67.33203125 63.35546875 68.78515625 65.921875 C70.75082548 69.31539113 72.75772826 72.62308611 74.97265625 75.859375 C80.21052871 83.65496181 84.78333001 91.80400732 89.03515625 100.171875 C89.33083496 100.74558838 89.62651367 101.31930176 89.93115234 101.91040039 C96.2658519 114.59836148 101.11481993 127.99559376 105.58032227 141.43359375 C106.3534095 143.75162559 107.14408659 146.06318613 107.93554688 148.375 C110.86361273 157.05698595 112.88172545 165.36793773 114.03515625 174.484375 C114.35298939 176.28015621 114.68576421 178.07337252 115.03515625 179.86328125 C122.52092552 218.49440979 121.94385237 257.21528832 113.61816406 295.6496582 C113.06585981 298.3350873 112.61445413 301.02065677 112.17578125 303.7265625 C110.97837698 310.41705886 108.97691928 316.85460896 106.94140625 323.3269043 C106.28837701 325.41159324 105.65349358 327.50124231 105.01953125 329.59179688 C102.6896692 337.13268955 100.00619101 344.09865373 96.25463867 351.08227539 C94.8779538 353.58915591 94.8779538 353.58915591 94.09765625 356.984375 C92.71189709 361.5492287 90.35387435 365.22872139 87.8984375 369.30078125 C86.11301843 372.35134004 84.52177852 375.43346999 82.97265625 378.609375 C79.12192247 386.43341234 74.82951343 393.74002607 69.4296875 400.59765625 C67.96304273 402.51610826 67.96304273 402.51610826 66.6328125 404.84375 C62.23148428 412.11831694 56.78642382 419.21026492 51.03515625 425.484375 C50.37515625 425.484375 49.71515625 425.484375 49.03515625 425.484375 C48.97328125 426.04125 48.91140625 426.598125 48.84765625 427.171875 C47.68707935 430.47505542 45.63302179 432.20332233 43.03515625 434.484375 C42.37515625 434.484375 41.71515625 434.484375 41.03515625 434.484375 C40.84953125 435.185625 40.66390625 435.886875 40.47265625 436.609375 C38.77769955 439.99928839 36.82198983 441.52947702 33.90625 443.86328125 C31.42513025 446.01289439 29.48360206 448.46666332 27.4921875 451.06640625 C25.73658292 452.77494368 24.38795876 452.96802497 22.03515625 453.484375 C20.98494522 455.33409196 20.98494522 455.33409196 20.03515625 457.484375 C18.09765625 459.734375 18.09765625 459.734375 16.03515625 461.484375 C15.04515625 461.484375 14.05515625 461.484375 13.03515625 461.484375 C12.83535156 462.04125 12.63554687 462.598125 12.4296875 463.171875 C10.48586121 466.39525081 7.7101478 468.29597942 4.72265625 470.484375 C3.58042644 471.33813681 2.4384952 472.19229822 1.296875 473.046875 C0.46736328 473.66163696 0.46736328 473.66163696 -0.37890625 474.28881836 C-1.83439704 475.38603794 -3.25516754 476.52892283 -4.671875 477.67578125 C-7.04021093 479.54382134 -9.52296232 480.97136314 -12.16015625 482.42578125 C-13.94393141 483.47210824 -15.56037574 484.62050302 -17.21484375 485.859375 C-23.31136415 490.28470011 -30.13874468 493.52619247 -36.79296875 497.01953125 C-37.64407227 497.46659424 -38.49517578 497.91365723 -39.37207031 498.37426758 C-41.08120338 499.27083823 -42.79146631 500.16525877 -44.50292969 501.05737305 C-45.29473633 501.47156494 -46.08654297 501.88575684 -46.90234375 502.3125 C-47.61261719 502.6827832 -48.32289063 503.05306641 -49.0546875 503.43457031 C-50.74321927 504.36257218 -52.36169917 505.41561195 -53.96484375 506.484375 C-55.222367 506.93963728 -56.49574516 507.35210085 -57.77734375 507.734375 C-61.88581026 509.04615442 -65.77147076 510.67659175 -69.71484375 512.421875 C-75.25708381 514.8310286 -80.76655255 516.79918748 -86.56640625 518.484375 C-89.63722849 519.38797327 -92.6685453 520.37859288 -95.70556641 521.38867188 C-103.88027563 524.06655961 -111.98982419 525.76134846 -120.47900391 527.08544922 C-123.28549127 527.53583228 -126.08363706 528.02576977 -128.8828125 528.51953125 C-130.97261686 528.88303902 -133.06246044 529.24632141 -135.15234375 529.609375 C-136.11333984 529.78025635 -137.07433594 529.9511377 -138.06445312 530.12719727 C-150.82317312 532.29726091 -163.60586622 532.69629061 -176.52734375 532.671875 C-177.2278183 532.67060608 -177.92829285 532.66933716 -178.6499939 532.66802979 C-196.94604084 532.60528418 -214.45018311 530.52491093 -232.46484375 527.484375 C-233.24630768 527.35295105 -234.02777161 527.2215271 -234.83291626 527.08612061 C-237.07614913 526.70534871 -239.31758466 526.3155035 -241.55859375 525.921875 C-242.56819405 525.74998154 -242.56819405 525.74998154 -243.59819031 525.57461548 C-247.26562322 524.91704381 -250.56146147 524.00496574 -253.96484375 522.484375 C-253.39355322 518.23829672 -251.92142388 515.43052938 -249.58984375 511.859375 C-248.98398438 510.91835938 -248.378125 509.97734375 -247.75390625 509.0078125 C-246.26397693 506.90629648 -244.78947179 505.27292282 -242.96484375 503.484375 C-242.03021473 501.84877422 -241.09853065 500.21136156 -240.1875 498.5625 C-237.17644178 493.44466303 -233.54361416 488.69729587 -230.09765625 483.8671875 C-226.78337616 479.18736712 -223.7038312 474.52411191 -220.96484375 469.484375 C-220.30484375 469.484375 -219.64484375 469.484375 -218.96484375 469.484375 C-218.72121094 468.78699219 -218.47757812 468.08960938 -218.2265625 467.37109375 C-216.76007349 464.01587587 -214.89245289 461.28569532 -212.77734375 458.296875 C-212.37660645 457.72662598 -211.97586914 457.15637695 -211.56298828 456.56884766 C-210.3684924 454.87050552 -209.16773152 453.17678048 -207.96484375 451.484375 C-204.32124012 446.34442491 -200.75283589 441.19670165 -197.40234375 435.859375 C-194.87196748 431.83687102 -192.19480487 428.01682439 -189.30078125 424.25 C-187.40190629 421.74037579 -185.69717377 419.11081083 -183.96484375 416.484375 C-183.13452948 415.33635205 -182.30104584 414.19061646 -181.46484375 413.046875 C-179.79733543 410.73879947 -178.32955732 408.42018129 -176.96484375 405.921875 C-174.92591776 402.41747095 -172.55540703 399.59305094 -169.96484375 396.484375 C-169.02168437 394.8257154 -168.08053267 393.16574172 -167.1640625 391.4921875 C-165.73586218 389.10099869 -164.12409427 386.90929735 -162.46484375 384.671875 C-158.13014137 378.81063902 -154.10377515 372.76270875 -150.08984375 366.6784668 C-149.59871094 365.93508057 -149.10757813 365.19169434 -148.6015625 364.42578125 C-148.16545654 363.76263916 -147.72935059 363.09949707 -147.2800293 362.41625977 C-146.34890176 361.04852036 -145.38019501 359.70601898 -144.38647461 358.38305664 C-142.89740259 356.46359822 -142.89740259 356.46359822 -141.58203125 354.1640625 C-139.58279587 350.85131982 -137.35434852 347.74432005 -135.08984375 344.609375 C-134.66832031 344.02285156 -134.24679687 343.43632812 -133.8125 342.83203125 C-130.32287474 337.97643647 -130.32287474 337.97643647 -128.59399414 335.6003418 C-126.00043163 332.01636349 -123.82704566 328.50281069 -121.96484375 324.484375 C-121.30484375 324.484375 -120.64484375 324.484375 -119.96484375 324.484375 C-119.72765625 323.79988281 -119.49046875 323.11539062 -119.24609375 322.41015625 C-117.69975481 318.87903472 -115.66104309 315.81882517 -113.46484375 312.671875 C-113.06136719 312.07439453 -112.65789062 311.47691406 -112.2421875 310.86132812 C-111.20444593 309.36293889 -110.09008578 307.91821886 -108.96484375 306.484375 C-108.30484375 306.484375 -107.64484375 306.484375 -106.96484375 306.484375 C-106.77921875 305.700625 -106.59359375 304.916875 -106.40234375 304.109375 C-104.75652792 299.95905683 -102.52259766 296.82276845 -99.91015625 293.2265625 C-97.24558425 289.47047908 -94.85110867 285.56196513 -92.4453125 281.63671875 C-90.96484375 279.484375 -90.96484375 279.484375 -88.96484375 278.484375 C-87.99880901 276.81879786 -87.03772265 275.1499545 -86.11328125 273.4609375 C-84.94463164 271.44958817 -83.65586209 269.60692881 -82.27734375 267.734375 C-79.8695118 264.68561986 -79.8695118 264.68561986 -78.96484375 261.484375 C-78.30484375 261.484375 -77.64484375 261.484375 -76.96484375 261.484375 C-76.69027344 260.74703125 -76.41570312 260.0096875 -76.1328125 259.25 C-73.21667551 252.3448997 -68.24945007 246.42388629 -63.578125 240.625 C-61.85084399 238.33311139 -60.4273278 235.95231684 -58.96484375 233.484375 C-57.87529701 231.89094587 -56.77066757 230.30774092 -55.65234375 228.734375 C-50.86516269 221.94161703 -46.23928705 215.09367305 -42.04296875 207.91796875 C-41.50929688 207.20833984 -41.50929688 207.20833984 -40.96484375 206.484375 C-40.30484375 206.484375 -39.64484375 206.484375 -38.96484375 206.484375 C-38.71476563 205.783125 -38.4646875 205.081875 -38.20703125 204.359375 C-36.80811862 201.12164011 -35.06462158 198.4055558 -33.08984375 195.484375 C-32.07277344 193.9684375 -32.07277344 193.9684375 -31.03515625 192.421875 C-29.71315765 190.54613359 -28.33668972 188.70688624 -26.89453125 186.921875 C-24.99630681 184.52411781 -23.52894281 182.11088097 -21.96484375 179.484375 C-19.25453763 175.43778982 -16.47087623 171.44100296 -13.703125 167.43359375 C-11.00194028 163.50853128 -8.4030955 159.57920367 -5.96484375 155.484375 C-4.73355563 153.74183464 -3.48243227 152.01318986 -2.21484375 150.296875 C5.24649884 140.11576088 5.24649884 140.11576088 12.03515625 129.484375 C12.69515625 128.494375 13.35515625 127.504375 14.03515625 126.484375 C0.35705785 127.33062099 -11.99359784 130.5593098 -25.0456543 134.62426758 C-28.0779067 135.51768777 -31.12254832 136.28216777 -34.1953125 137.0234375 C-38.92608272 138.1785096 -43.38783341 139.61095965 -47.90234375 141.421875 C-52.79715991 143.32574037 -57.67201538 145.06120341 -62.71484375 146.546875 C-67.96935998 148.10640506 -72.90281767 150.09327546 -77.9296875 152.265625 C-81.09187971 153.53538558 -84.25783434 154.52706882 -87.52734375 155.484375 C-92.70674418 157.01718086 -97.47427196 158.94900174 -102.34765625 161.265625 C-104.87745881 162.44368231 -107.42478886 163.4790267 -110.02734375 164.484375 C-114.46124157 166.21260354 -118.6381513 168.2942275 -122.8359375 170.53125 C-124.96484375 171.484375 -124.96484375 171.484375 -127.96484375 171.484375 C-126.85836764 156.27032855 -121.99521404 142.02479145 -116.79296875 127.80175781 C-115.96461809 125.48374353 -115.19177189 123.15304675 -114.4296875 120.8125 C-113.17846842 117.02288107 -111.70601142 113.38604034 -110.08984375 109.734375 C-108.1224865 105.23066993 -106.28392782 100.72232013 -104.58984375 96.109375 C-100.77240442 86.04857522 -95.96316457 76.14758059 -90.046875 67.14453125 C-88.92226492 65.41904648 -87.90771529 63.65662219 -86.90234375 61.859375 C-85.03264833 58.60248621 -83.1812393 55.51344892 -80.96484375 52.484375 C-80.30484375 52.484375 -79.64484375 52.484375 -78.96484375 52.484375 C-78.94421875 51.80375 -78.92359375 51.123125 -78.90234375 50.421875 C-77.68948227 46.62157571 -75.60039276 44.93506756 -72.734375 42.25 C-70.74397001 40.38004926 -70.74397001 40.38004926 -68.83984375 37.296875 C-66.83724899 34.29298286 -64.82860562 32.64965836 -61.96484375 30.484375 C-61.13984375 29.618125 -60.31484375 28.751875 -59.46484375 27.859375 C-56.99130704 25.50951513 -55.18392543 24.49608639 -51.96484375 23.484375 C-51.96484375 22.824375 -51.96484375 22.164375 -51.96484375 21.484375 C-47.8254451 18.52003145 -43.3754022 16.02256126 -38.96484375 13.484375 C-38.03027344 12.94039062 -37.09570312 12.39640625 -36.1328125 11.8359375 C-24.80300363 5.70908807 -12.38521055 3.05321294 0 0 Z " fill="#1A8CF9" transform="translate(476.96484375,64.515625)"/>
<path d="M0 0 C0.99 1.485 0.99 1.485 2 3 C1.36859198 5.90388122 0.63843003 8.61317891 -0.25 11.4375 C-2.38049345 18.58612162 -3.97045366 25.60230923 -5 33 C6.28412079 30.0351775 17.48083855 26.96176077 28.52124023 23.18115234 C33.46103793 21.49471455 38.42293107 19.94851116 43.4375 18.5 C54.76013305 15.21747038 66.02739602 11.77995714 77.140625 7.83984375 C78.17687012 7.47286377 79.21311523 7.10588379 80.28076172 6.7277832 C82.30593314 6.00601428 84.32852659 5.27696045 86.34814453 4.53979492 C87.27224121 4.20955322 88.19633789 3.87931152 89.1484375 3.5390625 C89.96489746 3.24209473 90.78135742 2.94512695 91.62255859 2.63916016 C94.17719024 1.95236352 96.36670414 1.88469454 99 2 C97.57030284 9.46596572 95.9046776 16.86018672 94.125 24.25 C93.72583374 25.91240723 93.72583374 25.91240723 93.31860352 27.60839844 C91.70409213 34.26966235 89.94835511 40.84832575 87.99609375 47.41796875 C86.44192723 53.00687346 85.17365467 58.66119767 83.86181641 64.31103516 C82.464214 70.25489876 80.86399831 76.03762198 78.89453125 81.8203125 C78.11339209 84.59693816 77.58403696 87.25913639 77.1015625 90.09765625 C76.01627938 96.30436475 74.32724867 102.26971381 72.5625 108.3125 C70.36698095 115.97696921 68.35861706 123.56496163 66.80078125 131.3828125 C65.53212461 137.11342739 63.90931552 142.7439647 62.33618164 148.3972168 C60.53903736 154.90151162 58.90425625 161.42784632 57.375 168 C55.76431877 174.92154172 53.97107193 181.74412403 51.9609375 188.5625 C50.87811779 192.4360014 49.95867379 196.33001992 49.0625 200.25 C47.71664841 206.13295248 46.21582455 211.94607525 44.5625 217.75 C42.42106517 225.27387112 40.58050954 232.84621995 38.80493164 240.46386719 C37.39445953 246.46931936 35.77309431 252.37955182 34.02734375 258.296875 C32.74468589 262.92029572 31.65151541 267.57779977 30.5625 272.25 C28.30980405 281.91382832 25.73650926 291.4629741 23 301 C18.39410029 300.43375746 14.84400372 299.16518864 10.6875 297.125 C7.05230564 295.38927657 3.55442743 293.75533263 -0.3125 292.625 C-10.73018787 289.3634771 -20.56253624 283.51590552 -29.60546875 277.5234375 C-31.79563085 276.13002279 -33.96697967 274.97929394 -36.3125 273.875 C-40.09225609 272.07768741 -42.84075442 269.73801284 -46 267 C-47.66568112 265.99835926 -49.33247225 264.99856347 -51 264 C-59.75046322 257.82320243 -67.89813302 250.9883905 -76 244 C-76.79921875 243.32582031 -77.5984375 242.65164063 -78.421875 241.95703125 C-82.39957678 238.57000323 -85.65545566 235.03060472 -89 231 C-90.10736179 230.02133885 -91.23369509 229.06385615 -92.375 228.125 C-96.38489519 224.77768406 -99.64137296 220.98714204 -103 217 C-103.83660156 216.03964844 -104.67320313 215.07929688 -105.53515625 214.08984375 C-111.76922681 206.90181697 -117.40874327 199.44250352 -122.84326172 191.63720703 C-124.5949204 189.1579704 -126.42928817 186.74126739 -128.25 184.3125 C-132.03185554 179.10679846 -135.04241317 173.70440311 -138 168 C-138.80428042 166.50038416 -139.61042389 165.00176671 -140.41796875 163.50390625 C-144.58529999 155.74005786 -148.65205253 148.03435224 -151.875 139.8203125 C-152.6338844 137.91783146 -153.44829541 136.03669855 -154.3125 134.1796875 C-162.19240702 117.09228043 -168.12694953 97.96531483 -170.66552734 79.31054688 C-171.06714636 76.53615101 -171.54203142 73.7779637 -172.01953125 71.015625 C-174.07316525 59.00327267 -175.66470705 47.18789878 -176 35 C-173.765625 34.21484375 -173.765625 34.21484375 -171 34 C-168.859375 35.87890625 -168.859375 35.87890625 -166.75 38.5625 C-160.53726081 45.91045731 -155.5742544 49.72343275 -146 51 C-143.17298721 51.70455883 -140.40261224 52.56022468 -137.625 53.4375 C-136.54025391 53.76331055 -136.54025391 53.76331055 -135.43359375 54.09570312 C-133.60168552 54.66795964 -131.79752795 55.32749828 -130 56 C-129.67 56.66 -129.34 57.32 -129 58 C-127.35 58 -125.7 58 -124 58 C-124 57.67 -124 57.34 -124 57 C-122.74316406 56.9484375 -121.48632812 56.896875 -120.19140625 56.84375 C-88.31540132 55.07564861 -57.04541973 46.93354936 -26.40625 38.41796875 C-25.68606186 38.21821442 -24.96587372 38.01846008 -24.22386169 37.81265259 C-22.84744402 37.42441134 -21.47410527 37.0250575 -20.10437012 36.61386108 C-18.60343392 36.17602635 -17.08924771 35.78259955 -15.56848145 35.41958618 C-13.21041873 34.79041632 -11.15418647 34.14884681 -9 33 C-7.07698571 29.97300539 -7.07698571 29.97300539 -6.40625 26.25 C-6.24378784 25.59547852 -6.08132568 24.94095703 -5.91394043 24.26660156 C-5.40570959 22.18453062 -4.9523401 20.09484583 -4.5 18 C-4.16765906 16.59289568 -3.83175506 15.18662786 -3.4921875 13.78125 C-2.87390789 11.20684972 -2.28169171 8.63141248 -1.70507812 6.046875 C-1 3 -1 3 0 0 Z " fill="#6BBC66" transform="translate(177,278)"/>
<path d="M0 0 C5.30052918 -0.71373462 8.32461404 1.07012004 12.42016602 4.17675781 C17.23073483 8.03327351 21.73187631 12.06008894 26.03515625 16.484375 C28.96071336 19.48900122 31.95927267 22.28088649 35.16015625 24.984375 C38.18851407 27.59951764 40.09086364 29.96613122 42.03515625 33.484375 C43.16298457 34.64537474 44.29559881 35.80243675 45.4609375 36.92578125 C52.37929038 43.77546562 58.7975563 51.26405464 64.03515625 59.484375 C64.03515625 60.144375 64.03515625 60.804375 64.03515625 61.484375 C64.69515625 61.484375 65.35515625 61.484375 66.03515625 61.484375 C67.33203125 63.35546875 67.33203125 63.35546875 68.78515625 65.921875 C70.75082548 69.31539113 72.75772826 72.62308611 74.97265625 75.859375 C87.31456111 94.22797625 96.42045308 114.43882249 103.47265625 135.359375 C103.73191895 136.12685059 103.99118164 136.89432617 104.25830078 137.68505859 C105.2558979 140.72721557 106.03515625 143.26173602 106.03515625 146.484375 C105.37515625 146.484375 104.71515625 146.484375 104.03515625 146.484375 C103.84928955 145.94135742 103.66342285 145.39833984 103.47192383 144.83886719 C98.22172941 129.48106155 98.22172941 129.48106155 92.03515625 114.484375 C91.72884277 113.80084961 91.4225293 113.11732422 91.10693359 112.41308594 C85.79666114 100.64328416 79.84062489 89.45458545 73.03515625 78.484375 C72.43888428 77.51878662 72.43888428 77.51878662 71.83056641 76.53369141 C67.82865976 70.08534865 63.72010443 63.77787241 58.94921875 57.86328125 C57.49867195 56.0604588 56.08270984 54.22974045 54.68359375 52.38671875 C47.40934057 42.82725206 39.38909513 34.10685927 31.03515625 25.484375 C30.15214844 24.57171875 29.26914062 23.6590625 28.359375 22.71875 C24.36196807 18.65920721 20.27891855 14.71913872 15.91015625 11.05859375 C14.03515625 9.484375 14.03515625 9.484375 12.47265625 7.94140625 C7.80593095 3.77635392 3.00122249 3.76988051 -3.07421875 3.99609375 C-13.09897883 5.25422127 -22.42013662 8.99595127 -31.48046875 13.34765625 C-35.21617623 15.05691864 -39.04534533 16.26354762 -42.96484375 17.484375 C-42.96484375 18.144375 -42.96484375 18.804375 -42.96484375 19.484375 C-44.89571678 20.91588431 -46.82753973 22.23903096 -48.83984375 23.546875 C-56.84952847 28.91813993 -64.0461076 34.80746553 -69.96484375 42.484375 C-70.62484375 42.154375 -71.28484375 41.824375 -71.96484375 41.484375 C-68.94371626 36.99584273 -66.32148749 33.7518578 -61.96484375 30.484375 C-61.13984375 29.618125 -60.31484375 28.751875 -59.46484375 27.859375 C-56.99130704 25.50951513 -55.18392543 24.49608639 -51.96484375 23.484375 C-51.96484375 22.824375 -51.96484375 22.164375 -51.96484375 21.484375 C-47.8254451 18.52003145 -43.3754022 16.02256126 -38.96484375 13.484375 C-38.03027344 12.94039062 -37.09570312 12.39640625 -36.1328125 11.8359375 C-24.80300363 5.70908807 -12.38521055 3.05321294 0 0 Z " fill="#37AFF7" transform="translate(476.96484375,64.515625)"/>
<path d="M0 0 C0.66 0 1.32 0 2 0 C0.95402023 3.97472313 -0.63087419 7.12461666 -2.8125 10.5625 C-5.81865751 15.41184897 -7.82068589 20.36037091 -9.7265625 25.7265625 C-10.70367897 28.23829134 -11.73784226 30.52594871 -12.9609375 32.9140625 C-14.9207984 36.76167018 -16.52874368 40.69247422 -18 44.75 C-18.28125732 45.52077881 -18.56251465 46.29155762 -18.85229492 47.08569336 C-21.84428157 55.39849302 -24.67903947 63.76686279 -27.49682617 72.14001465 C-28.03604496 73.74145086 -28.57703061 75.34229336 -29.11987305 76.94250488 C-31.92881647 85.2381934 -34.5713307 93.33273959 -36 102 C-35.41621582 101.74831055 -34.83243164 101.49662109 -34.23095703 101.23730469 C-31.52954343 100.07353678 -28.82727736 98.91176075 -26.125 97.75 C-25.2071875 97.35425781 -24.289375 96.95851563 -23.34375 96.55078125 C-7.69088156 89.82666171 -7.69088156 89.82666171 -0.5625 87.5625 C2.68992982 86.51242278 5.68614832 85.23027904 8.76171875 83.7421875 C16.08931181 80.38083348 23.7045089 77.99328421 31.375 75.5625 C32.88554131 75.07915538 34.39603902 74.59567446 35.90649414 74.11206055 C44.38583682 71.40803368 52.88427734 68.77446405 61.4375 66.3125 C62.2816748 66.06894775 63.12584961 65.82539551 63.99560547 65.57446289 C67.0827851 64.70865792 69.7776699 64 73 64 C73 64.66 73 65.32 73 66 C67.13313102 68.04924324 61.31107478 69.98461609 55.25 71.375 C49.63426965 72.71837079 44.37422165 74.65479644 39.00195312 76.7355957 C34.79247126 78.35737197 30.58097661 79.78654761 26.25 81.0625 C20.99548377 82.62203006 16.06202608 84.60890046 11.03515625 86.78125 C7.87296404 88.05101058 4.70700941 89.04269382 1.4375 90 C-3.74190043 91.53280586 -8.50942821 93.46462674 -13.3828125 95.78125 C-15.91261506 96.95930731 -18.45994511 97.9946517 -21.0625 99 C-25.49639782 100.72822854 -29.67330755 102.8098525 -33.87109375 105.046875 C-36 106 -36 106 -39 106 C-37.89352389 90.78595355 -33.03037029 76.54041645 -27.828125 62.31738281 C-26.99977434 59.99936853 -26.22692814 57.66867175 -25.46484375 55.328125 C-24.21362467 51.53850607 -22.74116767 47.90166534 -21.125 44.25 C-19.15764275 39.74629493 -17.31908407 35.23794513 -15.625 30.625 C-11.61262132 20.0504407 -6.55233322 9.25035278 0 0 Z " fill="#2D76F1" transform="translate(388,130)"/>
<path d="M0 0 C0.99 0.33 1.98 0.66 3 1 C2.63648438 1.46148437 2.27296875 1.92296875 1.8984375 2.3984375 C-1.57530439 6.90539492 -4.56311597 11.5331924 -7.44140625 16.4375 C-9.5224904 19.85903184 -11.82208038 23.09871549 -14.14453125 26.359375 C-16.1730872 29.24633041 -18.11987377 32.17960861 -20.0625 35.125 C-22.30864477 38.5158147 -24.5834023 41.83835432 -27.0625 45.0625 C-30.04392838 48.95447272 -32.6151331 53.0639019 -35.21875 57.21484375 C-37.43982861 60.68771446 -39.80395416 64.04374783 -42.1875 67.40625 C-44.15322782 70.21927429 -46.04755976 73.07305933 -47.9375 75.9375 C-51.11324344 80.7285448 -54.44298032 85.37207097 -57.85546875 89.99609375 C-60.83779451 94.17352273 -63.64358534 98.46428842 -66.41162109 102.78637695 C-68.94241879 106.66745096 -71.61178908 109.83446014 -75 113 C-75.33 112.34 -75.66 111.68 -76 111 C-74.6875 108.375 -74.6875 108.375 -73 106 C-72.34 106 -71.68 106 -71 106 C-70.75636719 105.30261719 -70.51273437 104.60523438 -70.26171875 103.88671875 C-68.79522974 100.53150087 -66.92760914 97.80132032 -64.8125 94.8125 C-64.21139404 93.95712646 -64.21139404 93.95712646 -63.59814453 93.08447266 C-62.40364865 91.38613052 -61.20288777 89.69240548 -60 88 C-56.35639637 82.86004991 -52.78799214 77.71232665 -49.4375 72.375 C-46.90712373 68.35249602 -44.22996112 64.53244939 -41.3359375 60.765625 C-39.43706254 58.25600079 -37.73233002 55.62643583 -36 53 C-35.16968573 51.85197705 -34.33620209 50.70624146 -33.5 49.5625 C-31.83249168 47.25442447 -30.36471357 44.93580629 -29 42.4375 C-26.96107401 38.93309595 -24.59056328 36.10867594 -22 33 C-21.05915439 31.34540944 -20.12025333 29.689527 -19.20703125 28.01953125 C-17.73804322 25.56170986 -16.07721999 23.30260219 -14.375 21 C-9.32624251 14.16988845 -4.67011424 7.09130052 0 0 Z " fill="#34A2F4" transform="translate(329,428)"/>
<path d="M0 0 C-1 2 -1 2 -4.65625 3.40234375 C-6.26703769 3.92588787 -7.88198596 4.4367346 -9.5 4.9375 C-10.36149658 5.20546387 -11.22299316 5.47342773 -12.1105957 5.74951172 C-19.53133711 7.9857502 -26.91031944 9.4585827 -34.5625 10.6171875 C-37.35015301 11.05499198 -40.12737212 11.54085979 -42.90625 12.03125 C-44.99997391 12.3959831 -47.09372381 12.76056712 -49.1875 13.125 C-50.14873779 13.29596191 -51.10997559 13.46692383 -52.1003418 13.64306641 C-64.86053269 15.8128505 -77.64006147 16.20500007 -90.5625 16.1875 C-91.60074921 16.18759064 -91.60074921 16.18759064 -92.65997314 16.18768311 C-108.00751125 16.16871647 -122.97037628 15.20406574 -138 12 C-138 11.34 -138 10.68 -138 10 C-135.27052356 10.30996259 -132.54144015 10.62287975 -129.8125 10.9375 C-129.04357422 11.02451172 -128.27464844 11.11152344 -127.48242188 11.20117188 C-126.35610352 11.33168945 -126.35610352 11.33168945 -125.20703125 11.46484375 C-124.5210083 11.543396 -123.83498535 11.62194824 -123.12817383 11.70288086 C-121 12 -121 12 -118.73657227 12.52294922 C-115.15754126 13.14686095 -111.62883391 13.16194388 -108.0078125 13.16796875 C-107.23382614 13.17224884 -106.45983978 13.17652893 -105.66239929 13.18093872 C-103.14987424 13.19094522 -100.63754127 13.19098612 -98.125 13.1875 C-96.83630508 13.18609512 -96.83630508 13.18609512 -95.52157593 13.18466187 C-67.01379495 13.1171654 -39.7608573 9.59389118 -12.24414062 1.87988281 C-11.36177734 1.63463867 -10.47941406 1.38939453 -9.5703125 1.13671875 C-8.80477051 0.91717529 -8.03922852 0.69763184 -7.25048828 0.47143555 C-4.78003665 -0.04607824 -2.51708315 -0.08075757 0 0 Z " fill="#37B3F8" transform="translate(391,581)"/>
<path d="M0 0 C0.66 0 1.32 0 2 0 C4.91349616 8.03991498 7.37672739 15.73306711 8.47265625 24.25 C9.01512888 28.10758313 9.72299657 31.90684914 10.4597168 35.73095703 C16.04987464 65.02813309 17.11765146 95.40438014 13 125 C12.34 125 11.68 125 11 125 C11.0721875 123.82050781 11.144375 122.64101563 11.21875 121.42578125 C13.31300009 84.58855447 13.8801815 43.08061619 0.91796875 7.86328125 C0.01620291 5.0505393 -0.19020185 2.92910842 0 0 Z " fill="#3373F1" transform="translate(582,211)"/>
<path d="M0 0 C-1.42969716 7.46596572 -3.0953224 14.86018672 -4.875 22.25 C-5.14111084 23.35827148 -5.40722168 24.46654297 -5.68139648 25.60839844 C-7.29590787 32.26966235 -9.05164489 38.84832575 -11.00390625 45.41796875 C-12.55807277 51.00687346 -13.82634533 56.66119767 -15.13818359 62.31103516 C-16.55960368 68.35619297 -18.25020742 74.21863711 -20.15625 80.12890625 C-21.27368974 83.93130538 -21.97644464 87.75080077 -22.60546875 91.66015625 C-22.73566406 92.43230469 -22.86585938 93.20445312 -23 94 C-23.17982422 95.11181641 -23.17982422 95.11181641 -23.36328125 96.24609375 C-23.57339844 96.82488281 -23.78351563 97.40367187 -24 98 C-25.485 98.495 -25.485 98.495 -27 99 C-24.8926074 89.14587931 -22.62875238 79.3649312 -20.00390625 69.63525391 C-17.84165207 61.55811386 -15.93220057 53.42283792 -14.05517578 45.27514648 C-13.81653809 44.25751221 -13.57790039 43.23987793 -13.33203125 42.19140625 C-13.12296143 41.28592041 -12.9138916 40.38043457 -12.69848633 39.44750977 C-12.02855716 37.10006486 -11.1267723 35.15586595 -10 33 C-9.61581807 31.40724576 -9.28459062 29.80102719 -9 28.1875 C-8.22148058 24.03539643 -7.1703432 20.06177935 -6 16 C-4.9668793 11.67412513 -3.97860914 7.33850051 -3 3 C-4.19496094 3.40992188 -5.38992188 3.81984375 -6.62109375 4.2421875 C-8.22647913 4.78670418 -9.83195264 5.3309611 -11.4375 5.875 C-12.22060547 6.14441406 -13.00371094 6.41382813 -13.81054688 6.69140625 C-19.15987311 8.49652868 -24.46992196 9.85966359 -30 11 C-30 10.34 -30 9.68 -30 9 C-25.9422595 7.48689875 -21.87810033 5.99184012 -17.8125 4.5 C-16.66201172 4.07074219 -15.51152344 3.64148438 -14.32617188 3.19921875 C-13.21435547 2.79316406 -12.10253906 2.38710938 -10.95703125 1.96875 C-9.93585205 1.59169922 -8.91467285 1.21464844 -7.86254883 0.82617188 C-5.07499548 0.02164475 -2.88069216 -0.16659425 0 0 Z " fill="#47A56E" transform="translate(276,280)"/>
<path d="M0 0 C0.66 0 1.32 0 2 0 C2 0.99 2 1.98 2 3 C1.34 3 0.68 3 0 3 C-0.23332031 3.67804688 -0.46664062 4.35609375 -0.70703125 5.0546875 C-2.31634581 8.72061856 -4.42695321 11.83314191 -6.6875 15.125 C-10.48203408 20.71009707 -14.12692914 26.34423154 -17.625 32.12109375 C-18.305625 33.05115234 -18.305625 33.05115234 -19 34 C-19.66 34 -20.32 34 -21 34 C-21.268125 34.969375 -21.53625 35.93875 -21.8125 36.9375 C-22.4003125 38.4534375 -22.4003125 38.4534375 -23 40 C-24.485 40.495 -24.485 40.495 -26 41 C-26.70953287 42.64887396 -27.36919243 44.31943342 -28 46 C-29.14368157 47.73797338 -30.33315829 49.4465251 -31.5625 51.125 C-33.54351862 53.83500053 -34.93461623 55.8038487 -36 59 C-36.66 59 -37.32 59 -38 59 C-38.268125 59.721875 -38.53625 60.44375 -38.8125 61.1875 C-39.99901362 63.99766383 -41.27485639 66.48416557 -43 69 C-43.66 69 -44.32 69 -45 69 C-45.20625 69.66 -45.4125 70.32 -45.625 71 C-47.62814249 75.37049271 -50.57847894 80.78923947 -55 83 C-52.99280995 74.52519756 -46.58293248 67.65093222 -41.359375 60.88671875 C-39.95556228 58.99764612 -39.95556228 58.99764612 -38.734375 56.86328125 C-35.63219384 51.74188757 -32.14009763 46.87468682 -28.73828125 41.94921875 C-26.03709653 38.02415628 -23.43825175 34.09482867 -21 30 C-19.76871188 28.25745964 -18.51758852 26.52881486 -17.25 24.8125 C-9.78670782 14.63270252 -9.78670782 14.63270252 -3 4 C-1.4375 1.6875 -1.4375 1.6875 0 0 Z " fill="#3672F0" transform="translate(492,190)"/>
<path d="M0 0 C0.72645721 -0.0007251 1.45291443 -0.0014502 2.2013855 -0.00219727 C12.87213225 -0.00101976 23.33361876 0.38500428 33.875 2.1875 C33.875 2.8475 33.875 3.5075 33.875 4.1875 C27.49637686 4.31149051 21.17678548 4.11261495 14.8125 3.6875 C2.23669032 2.88416232 -10.28892479 3.0290841 -22.875 3.5625 C-23.70878174 3.59327637 -24.54256348 3.62405273 -25.40161133 3.65576172 C-30.02584753 3.88294364 -33.73953405 4.61164842 -38.125 6.1875 C-41.48204085 7.00653708 -44.86298587 7.69217401 -48.25 8.375 C-49.14332031 8.56513672 -50.03664062 8.75527344 -50.95703125 8.95117188 C-51.81941406 9.12583984 -52.68179688 9.30050781 -53.5703125 9.48046875 C-54.34906738 9.6405542 -55.12782227 9.80063965 -55.93017578 9.96557617 C-58.26482918 10.20163846 -59.90230823 9.89264944 -62.125 9.1875 C-41.41494556 3.05926167 -21.63586816 -0.02202778 0 0 Z " fill="#93C96C" transform="translate(289.125,0.8125)"/>
<path d="M0 0 C0.75539063 -0.01417969 1.51078125 -0.02835937 2.2890625 -0.04296875 C4.375 0.1875 4.375 0.1875 7.375 2.1875 C7.045 3.1775 6.715 4.1675 6.375 5.1875 C5.385 4.6925 5.385 4.6925 4.375 4.1875 C-9.67119806 2.76252339 -21.64010069 7.04674154 -34.140625 13.05078125 C-37.87633248 14.76004364 -41.70550158 15.96667262 -45.625 17.1875 C-45.625 17.8475 -45.625 18.5075 -45.625 19.1875 C-47.55587303 20.61900931 -49.48769598 21.94215596 -51.5 23.25 C-59.50968472 28.62126493 -66.70626385 34.51059053 -72.625 42.1875 C-73.285 41.8575 -73.945 41.5275 -74.625 41.1875 C-71.60387251 36.69896773 -68.98164374 33.4549828 -64.625 30.1875 C-63.8 29.32125 -62.975 28.455 -62.125 27.5625 C-59.65146329 25.21264013 -57.84408168 24.19921139 -54.625 23.1875 C-54.625 22.5275 -54.625 21.8675 -54.625 21.1875 C-50.48560135 18.22315645 -46.03555845 15.72568626 -41.625 13.1875 C-40.69042969 12.64351562 -39.75585938 12.09953125 -38.79296875 11.5390625 C-27.65667652 5.51686155 -12.81938331 0.11013216 0 0 Z " fill="#379AF4" transform="translate(479.625,64.8125)"/>
<path d="M0 0 C0.495 1.485 0.495 1.485 1 3 C-0.2375 3.40726318 -0.2375 3.40726318 -1.5 3.82275391 C-30.66489069 13.43724005 -58.0851393 23.56839799 -84.27026367 39.94360352 C-86 41 -86 41 -88 42 C-87.92578125 40.25390625 -87.92578125 40.25390625 -87 38 C-84.74089209 36.46039205 -82.59840512 35.19390335 -80.1875 33.9375 C-78.73428327 33.1538159 -77.28116293 32.36995305 -75.828125 31.5859375 C-75.05017578 31.17182617 -74.27222656 30.75771484 -73.47070312 30.33105469 C-70.87332852 28.93175762 -68.30270469 27.49093192 -65.734375 26.0390625 C-63.96877472 25.046831 -62.20315011 24.05464282 -60.4375 23.0625 C-59.18972778 22.35371704 -59.18972778 22.35371704 -57.91674805 21.63061523 C-53.30118854 19.06517414 -49.09430725 17.44864351 -44 16 C-42.01756363 15.09135399 -40.0461035 14.15862506 -38.08203125 13.2109375 C-30.49319196 9.63345057 -22.68632812 7.11568668 -14.6875 4.625 C-13.25300823 4.17135314 -11.81876181 3.71692974 -10.38476562 3.26171875 C-6.92594557 2.16555542 -3.46397231 1.07978787 0 0 Z " fill="#93C86D" transform="translate(225,9)"/>
<path d="M0 0 C0.66 0 1.32 0 2 0 C1.63264532 7.73978309 0.73968606 15.02719475 -1.18359375 22.5390625 C-1.84369789 25.3373987 -2.34121125 28.0690339 -2.80078125 30.90234375 C-4.01737695 37.71296783 -6.02200743 44.25503534 -8.09375 50.8425293 C-8.74677924 52.92721824 -9.38166267 55.01686731 -10.015625 57.10742188 C-12.62134586 65.54163051 -15.74739921 73.23209998 -20 81 C-21 79 -21 79 -20.00390625 75.7421875 C-19.53110016 74.4502948 -19.05028031 73.16131362 -18.5625 71.875 C-18.31951172 71.21628906 -18.07652344 70.55757813 -17.82617188 69.87890625 C-17.22421679 68.25008662 -16.61297588 66.62470425 -16 65 C-15.34 65 -14.68 65 -14 65 C-13.9175 63.989375 -13.835 62.97875 -13.75 61.9375 C-13.17651997 57.39679508 -12.00685487 53.09008306 -10.79614258 48.68286133 C-6.41536839 32.62517119 -2.57920241 16.4480715 0 0 Z " fill="#2E7DF4" transform="translate(592,337)"/>
<path d="M0 0 C0.66 0.33 1.32 0.66 2 1 C-0.98214693 5.52237667 -3.9951762 10.01575876 -7.125 14.4375 C-10.56326345 19.3327854 -13.91615651 24.28328423 -17.25 29.25 C-17.76965332 30.01884521 -18.28930664 30.78769043 -18.82470703 31.57983398 C-21.52352898 35.61579555 -23.95226156 39.59595979 -26 44 C-24.845 44.0825 -23.69 44.165 -22.5 44.25 C-15.18353585 45.03684285 -8.09824136 47.1274578 -1 49 C-1.33 49.66 -1.66 50.32 -2 51 C-10.58 49.35 -19.16 47.7 -28 46 C-29 41 -29 41 -27.375 38.01953125 C-26.59125 36.96121094 -25.8075 35.90289063 -25 34.8125 C-24.37532837 33.95277588 -24.37532837 33.95277588 -23.73803711 33.07568359 C-22.89349581 31.91389274 -22.043191 30.75626845 -21.18701172 29.60302734 C-19.60745749 27.46988192 -18.08238812 25.30095493 -16.5625 23.125 C-16.01207031 22.34253906 -15.46164063 21.56007813 -14.89453125 20.75390625 C-13.38973421 18.56652086 -11.91221022 16.36757687 -10.44921875 14.15234375 C-10.00312256 13.4773584 -9.55702637 12.80237305 -9.09741211 12.10693359 C-8.21601553 10.76958716 -7.33778842 9.43014506 -6.46313477 8.08837891 C-4.50290014 5.11200041 -2.57543128 2.45849228 0 0 Z " fill="#31B1F7" transform="translate(252,542)"/>
<path d="M0 0 C1.0169313 2.65498232 1.13022151 3.69155375 0.00390625 6.359375 C-0.70958984 7.54273438 -0.70958984 7.54273438 -1.4375 8.75 C-1.91058594 9.54921875 -2.38367188 10.3484375 -2.87109375 11.171875 C-3.24363281 11.77515625 -3.61617188 12.3784375 -4 13 C-4.66 13 -5.32 13 -6 13 C-6.26425781 13.55429687 -6.52851563 14.10859375 -6.80078125 14.6796875 C-11.58118693 23.92907179 -17.83470395 32.84818647 -24.375 40.9375 C-26.18778545 42.99882389 -26.18778545 42.99882389 -27 46 C-27.66 46 -28.32 46 -29 46 C-29.26731934 46.72920654 -29.53463867 47.45841309 -29.81005859 48.2097168 C-30.98530743 50.96554752 -32.33425894 53.18760847 -34.0390625 55.64453125 C-34.61914062 56.48564453 -35.19921875 57.32675781 -35.796875 58.19335938 C-36.40015625 59.05767578 -37.0034375 59.92199219 -37.625 60.8125 C-38.23601562 61.69615234 -38.84703125 62.57980469 -39.4765625 63.49023438 C-40.98003475 65.66322161 -42.48794734 67.83297876 -44 70 C-44.66 69.67 -45.32 69.34 -46 69 C-43.93725105 65.25649264 -41.84135004 61.69776357 -39.3125 58.25 C-36.90466805 55.20124486 -36.90466805 55.20124486 -36 52 C-35.34 52 -34.68 52 -34 52 C-33.72542969 51.26265625 -33.45085937 50.5253125 -33.16796875 49.765625 C-30.25183176 42.8605247 -25.28460632 36.93951129 -20.61328125 31.140625 C-18.88600024 28.84873639 -17.46248405 26.46794184 -16 24 C-14.91045326 22.40657087 -13.80582382 20.82336592 -12.6875 19.25 C-8.25720001 12.96515583 -3.86355732 6.65390428 0 0 Z " fill="#387EF0" transform="translate(434,274)"/>
<path d="M0 0 C0.66 0.99 1.32 1.98 2 3 C0.51113281 4.09054688 0.51113281 4.09054688 -1.0078125 5.203125 C-13.71422332 14.57660346 -25.80877986 24.2967443 -36.65112305 35.81225586 C-39.55761165 38.8372423 -41.95095001 40.79642918 -46 42 C-44.66786032 38.40322286 -42.48037974 36.62908212 -39.51171875 34.29296875 C-37.78200371 32.89905152 -37.78200371 32.89905152 -35.9375 30.375 C-34 28 -34 28 -31.5625 26.5625 C-28.29868099 24.57236645 -26.42870492 21.9269008 -24 19 C-22.68352881 18.30062468 -21.34977849 17.63270867 -20 17 C-19.27167969 16.26265625 -18.54335937 15.5253125 -17.79296875 14.765625 C-14.80618492 11.80808241 -11.66960445 9.32557592 -8.3125 6.8125 C-3.99396538 3.59904829 -3.99396538 3.59904829 0 0 Z " fill="#93C862" transform="translate(127,54)"/>
<path d="M0 0 C0.66 0.99 1.32 1.98 2 3 C1.36859198 5.90388122 0.63843003 8.61317891 -0.25 11.4375 C-2.37839148 18.57906871 -4.02740054 25.59663098 -5 33 C-4.33613281 32.7834375 -3.67226562 32.566875 -2.98828125 32.34375 C-2.10527344 32.0653125 -1.22226563 31.786875 -0.3125 31.5 C0.55761719 31.2215625 1.42773438 30.943125 2.32421875 30.65625 C4.99391677 30.00149195 7.26396684 29.88168505 10 30 C9.67 30.66 9.34 31.32 9 32 C6.4375 32.625 6.4375 32.625 4 33 C4 33.33 4 33.66 4 34 C0.28929137 35.21165996 -2.44881683 36.0102071 -6.375 35.9375 C-10.35775488 36.00616819 -13.14701403 36.98373543 -16.84375 38.33203125 C-19.61492122 39.1904919 -22.12179428 39.22140044 -25 39 C-22.67370028 37.67651795 -20.79892461 36.96185818 -18.14916992 36.45922852 C-14.62400473 35.72970246 -12.06610805 34.90950543 -9 33 C-6.35840257 28.22791159 -5.36459568 23.22861601 -4.3125 17.9375 C-3.99506063 16.53470642 -3.67283409 15.13298709 -3.34570312 13.73242188 C-2.75259869 11.16927653 -2.19478579 8.607284 -1.6574707 6.03100586 C-1 3 -1 3 0 0 Z " fill="#49A86D" transform="translate(177,278)"/>
<path d="M0 0 C0.66 0 1.32 0 2 0 C0.125 4.75 0.125 4.75 -1 7 C-1.66 7 -2.32 7 -3 7 C-3 7.66 -3 8.32 -3 9 C-3.66 9 -4.32 9 -5 9 C-5.114646 9.57943359 -5.22929199 10.15886719 -5.34741211 10.75585938 C-6.05495117 13.18896787 -7.01960171 14.81522518 -8.44140625 16.90625 C-8.93874268 17.64431885 -9.4360791 18.3823877 -9.94848633 19.14282227 C-10.48111084 19.92069092 -11.01373535 20.69855957 -11.5625 21.5 C-12.66158026 23.12361538 -13.7605384 24.74731345 -14.859375 26.37109375 C-15.39755859 27.16241699 -15.93574219 27.95374023 -16.49023438 28.76904297 C-17.78465547 30.68178876 -19.0630095 32.60296956 -20.328125 34.53515625 C-24.29246689 40.58311878 -28.45424447 46.37462753 -33 52 C-33.33 51.34 -33.66 50.68 -34 50 C-33.06553465 47.96855359 -32.06775224 45.96466413 -31 44 C-30.34 44 -29.68 44 -29 44 C-28.64421875 42.97326172 -28.64421875 42.97326172 -28.28125 41.92578125 C-26.73491106 38.39465972 -24.69619934 35.33445017 -22.5 32.1875 C-22.09652344 31.59001953 -21.69304687 30.99253906 -21.27734375 30.37695312 C-20.23960218 28.87856389 -19.12524203 27.43384386 -18 26 C-17.34 26 -16.68 26 -16 26 C-15.814375 25.21625 -15.62875 24.4325 -15.4375 23.625 C-13.78748516 19.46409302 -11.56525545 16.28621984 -8.9453125 12.6796875 C-6.36596088 9.12660475 -3.9299843 5.47938168 -1.48046875 1.8359375 C-0.99191406 1.23007812 -0.50335938 0.62421875 0 0 Z " fill="#368CF1" transform="translate(386,345)"/>
<path d="M0 0 C0.495 1.485 0.495 1.485 1 3 C-8.03689678 6.09445253 -17.11528222 8.97384429 -26.27416992 11.68457031 C-33.2152144 13.74462181 -40.11578954 15.91996428 -46.99707031 18.17163086 C-50.10272351 19.17179633 -52.71523585 20 -56 20 C-56 19.34 -56 18.68 -56 18 C-44.36119345 14.05670944 -32.73600781 10.1185118 -20.92041016 6.73486328 C-13.87348525 4.70633454 -6.93777651 2.37318411 0 0 Z " fill="#47A76B" transform="translate(244,289)"/>
<path d="M0 0 C0 0.66 0 1.32 0 2 C-5.86686898 4.04924324 -11.68892522 5.98461609 -17.75 7.375 C-23.35889943 8.71673673 -28.60994361 10.65408789 -33.97827148 12.72460938 C-50.32141756 19 -50.32141756 19 -56 19 C-56 18.34 -56 17.68 -56 17 C-42.68053718 11.96742196 -29.31746036 7.33944104 -15.625 3.4375 C-13.80790527 2.91833008 -13.80790527 2.91833008 -11.95410156 2.38867188 C-3.41301205 0 -3.41301205 0 0 0 Z " fill="#2986F4" transform="translate(461,194)"/>
<path d="M0 0 C0.33 0 0.66 0 1 0 C1.02535418 6.33544053 1.04286866 12.67086797 1.05493164 19.00634766 C1.05996052 21.16162607 1.06678442 23.31690107 1.07543945 25.47216797 C1.08756821 28.56999554 1.09324278 31.66777801 1.09765625 34.765625 C1.10281754 35.72929993 1.10797882 36.69297485 1.11329651 37.68585205 C1.11337204 38.58648376 1.11344757 39.48711548 1.11352539 40.41503906 C1.115746 41.20557678 1.11796661 41.9961145 1.12025452 42.81060791 C1.00026577 44.99516126 0.60355197 46.90192682 0 49 C-0.66 49 -1.32 49 -2 49 C-3.87713365 32.5128864 -1.8653771 16.39592984 0 0 Z " fill="#6DB76C" transform="translate(3,260)"/>
<path d="M0 0 C0.495 1.485 0.495 1.485 1 3 C-21.23843525 16.3907883 -21.23843525 16.3907883 -32.41796875 21.73046875 C-35.14026325 22.99914396 -35.14026325 22.99914396 -38 25 C-40.6875 25.125 -40.6875 25.125 -43 25 C-39.92164993 21.4967929 -37.14386213 20.03036231 -32.8125 18.375 C-21.13639315 13.68485207 -10.61959509 6.67310002 0 0 Z " fill="#2EA5F7" transform="translate(461,546)"/>
<path d="M0 0 C0.99 0.33 1.98 0.66 3 1 C2.70343506 1.69746338 2.40687012 2.39492676 2.10131836 3.11352539 C-4.55193321 18.85238621 -10.41685837 34.52029461 -15 51 C-15.33 51 -15.66 51 -16 51 C-16.24393199 45.71480695 -15.50806942 41.72766643 -13.75 36.75 C-13.52183594 36.09741211 -13.29367187 35.44482422 -13.05859375 34.77246094 C-12.59674884 33.45723499 -12.13003817 32.1437064 -11.65820312 30.83203125 C-11.07737463 29.2153632 -10.51389889 27.59248334 -9.953125 25.96875 C-7.97496211 20.32612142 -5.63139154 14.94447663 -3.10546875 9.52734375 C-1.7338403 6.39150062 -0.81161464 3.32024171 0 0 Z " fill="#8EC770" transform="translate(28,172)"/>
<path d="M0 0 C0.71929687 -0.00515625 1.43859375 -0.0103125 2.1796875 -0.015625 C4.125 0.25 4.125 0.25 7.125 2.25 C6.795 3.24 6.465 4.23 6.125 5.25 C5.465 4.92 4.805 4.59 4.125 4.25 C-5.4794076 3.27563981 -13.21189665 4.82464021 -22.18359375 7.9609375 C-25.72787898 9.19862441 -29.25852885 10.25138732 -32.875 11.25 C-31.875 8.25 -31.875 8.25 -30.25195312 7.39038086 C-29.56037109 7.16745361 -28.86878906 6.94452637 -28.15625 6.71484375 C-27.38796875 6.46283203 -26.6196875 6.21082031 -25.828125 5.95117188 C-25.01859375 5.69916016 -24.2090625 5.44714844 -23.375 5.1875 C-22.59640625 4.93162109 -21.8178125 4.67574219 -21.015625 4.41210938 C-7.15156795 -0.05239244 -7.15156795 -0.05239244 0 0 Z " fill="#3CA7F7" transform="translate(479.875,64.75)"/>
<path d="M0 0 C3.35120984 2.75314778 4.86531603 6.48478467 6.6875 10.3125 C12.82954853 23.32237011 12.82954853 23.32237011 20.79296875 35.203125 C21.19128906 35.79609375 21.58960937 36.3890625 22 37 C21.67 37.99 21.34 38.98 21 40 C16.17960227 34.03433046 12.55199141 27.778964 9 21 C8.12248793 19.37945262 7.24345781 17.75972674 6.36328125 16.140625 C5.42923074 14.40649594 4.49563928 12.67211956 3.5625 10.9375 C3.10069336 10.09147217 2.63888672 9.24544434 2.16308594 8.3737793 C1.73930664 7.57883057 1.31552734 6.78388184 0.87890625 5.96484375 C0.4929126 5.2493335 0.10691895 4.53382324 -0.29077148 3.79663086 C-0.6418396 2.90729858 -0.6418396 2.90729858 -1 2 C-0.67 1.34 -0.34 0.68 0 0 Z " fill="#92C86B" transform="translate(30,425)"/>
<path d="M0 0 C0.66 0.33 1.32 0.66 2 1 C1.43152344 1.94359375 0.86304687 2.8871875 0.27734375 3.859375 C-9.36633697 19.6507193 -9.36633697 19.6507193 -18 36 C-19.18717431 32.49070308 -19.01895446 32.04354403 -17.41015625 28.34765625 C-16.64125782 26.91187498 -15.85780439 25.48382459 -15.0625 24.0625 C-14.65443115 23.31411865 -14.2463623 22.5657373 -13.82592773 21.79467773 C-4.06307706 4.06307706 -4.06307706 4.06307706 0 0 Z " fill="#90C76C" transform="translate(50,135)"/>
<path d="M0 0 C0 3.98155503 -1.86304942 6.24008174 -4 9.4375 C-4.40355713 10.05133545 -4.80711426 10.6651709 -5.22290039 11.29760742 C-6.0611645 12.57047847 -6.902432 13.84137632 -7.74658203 15.11035156 C-8.94551538 16.91785918 -10.12921657 18.73437771 -11.30859375 20.5546875 C-16.74365539 28.87182769 -16.74365539 28.87182769 -19 30 C-17.81906516 23.85913885 -14.43525612 19.00549761 -10.6875 14.125 C-9.50414062 12.57425781 -9.50414062 12.57425781 -8.296875 10.9921875 C-7.53890625 10.00476563 -6.7809375 9.01734375 -6 8 C-4.81017968 6.41840957 -3.62229017 4.83536209 -2.4375 3.25 C-1.625 2.16666667 -0.8125 1.08333333 0 0 Z " fill="#3893F2" transform="translate(351,397)"/>
<path d="M0 0 C0.99 0.66 1.98 1.32 3 2 C2.41734375 2.6084375 1.8346875 3.216875 1.234375 3.84375 C-6.17052795 11.76094183 -12.61112463 20.25097308 -19 29 C-19.33 28.01 -19.66 27.02 -20 26 C-19.67 25.34 -19.34 24.68 -19 24 C-18.34 24 -17.68 24 -17 24 C-16.7525 23.278125 -16.505 22.55625 -16.25 21.8125 C-14.55086147 17.98943832 -12.09211208 15.22703501 -9.32421875 12.1171875 C-5.87254551 8.22943563 -2.7568572 4.41097151 0 0 Z " fill="#92C967" transform="translate(74,102)"/>
<path d="M0 0 C0 0.99 0 1.98 0 3 C-1.87109375 4.796875 -1.87109375 4.796875 -4.4375 6.75 C-5.35015625 7.44996094 -6.2628125 8.14992188 -7.203125 8.87109375 C-8.12609375 9.57363281 -9.0490625 10.27617188 -10 11 C-10.79921875 11.65097656 -11.5984375 12.30195312 -12.421875 12.97265625 C-16.78331564 16.51444684 -20.7084392 19.0860312 -26 21 C-26 20.34 -26 19.68 -26 19 C-24.70703125 17.84375 -24.70703125 17.84375 -22.8125 16.5 C-20.09344741 14.53354233 -17.39874822 12.5481615 -14.75 10.48828125 C-14.1830542 10.04742188 -13.6161084 9.6065625 -13.03198242 9.15234375 C-11.90597185 8.27494122 -10.78108938 7.39608855 -9.6574707 6.515625 C-6.55145778 4.10670691 -3.41576668 1.94552944 0 0 Z " fill="#29A1F6" transform="translate(489,526)"/>
<path d="M0 0 C1.54899426 2.92039413 2.66239974 5.80618199 3.65625 8.95703125 C3.95660156 9.90513672 4.25695312 10.85324219 4.56640625 11.83007812 C4.87449219 12.81427734 5.18257812 13.79847656 5.5 14.8125 C5.96212891 16.27139648 5.96212891 16.27139648 6.43359375 17.75976562 C8.03031158 22.82060734 9.57416019 27.88836428 11 33 C10.01 32.67 9.02 32.34 8 32 C6.81738281 29.48730469 6.81738281 29.48730469 5.703125 26.171875 C5.30222656 24.97949219 4.90132812 23.78710938 4.48828125 22.55859375 C4.28541504 21.9332373 4.08254883 21.30788086 3.87353516 20.66357422 C3.25517849 18.76589234 2.61010196 16.87698538 1.96484375 14.98828125 C1.37123047 13.19197266 1.37123047 13.19197266 0.765625 11.359375 C0.40243164 10.26077148 0.03923828 9.16216797 -0.33496094 8.03027344 C-1.02023084 4.9078175 -0.88243293 3.03980495 0 0 Z " fill="#90CA70" transform="translate(12,374)"/>
<path d="M0 0 C1.0169313 2.65498232 1.13022151 3.69155375 0.00390625 6.359375 C-0.47175781 7.14828125 -0.94742187 7.9371875 -1.4375 8.75 C-1.91058594 9.54921875 -2.38367188 10.3484375 -2.87109375 11.171875 C-3.24363281 11.77515625 -3.61617188 12.3784375 -4 13 C-4.66 13 -5.32 13 -6 13 C-6.27070313 13.56332031 -6.54140625 14.12664062 -6.8203125 14.70703125 C-8.06226179 17.12101878 -9.41483726 19.39890296 -10.875 21.6875 C-11.36742187 22.47511719 -11.85984375 23.26273437 -12.3671875 24.07421875 C-14.20868995 26.24613432 -15.22312716 26.64537771 -18 27 C-9 13.5 -9 13.5 0 0 Z " fill="#3376F1" transform="translate(434,274)"/>
<path d="M0 0 C0.66 0.99 1.32 1.98 2 3 C1.56429687 3.72703125 1.12859375 4.4540625 0.6796875 5.203125 C-3.06303435 11.52200604 -6.53472511 17.89492605 -9.73828125 24.50390625 C-11 27 -11 27 -13 30 C-13.66 30 -14.32 30 -15 30 C-13.67653142 26.51424472 -12.13931911 23.31073452 -10.3125 20.0625 C-6.66825808 13.47587016 -3.3301151 6.74890191 0 0 Z " fill="#2E8AF4" transform="translate(568,422)"/>
<path d="M0 0 C-5.83989547 2.86685778 -11.70945661 4.9250019 -17.9375 6.75 C-18.69538818 6.97260498 -19.45327637 7.19520996 -20.23413086 7.42456055 C-25.72313744 9 -25.72313744 9 -28 9 C-28 8.34 -28 7.68 -28 7 C-4.52427184 -2.26213592 -4.52427184 -2.26213592 0 0 Z " fill="#4BA870" transform="translate(274,282)"/>
<path d="M0 0 C-8.54097091 4.31082742 -16.34319738 8.01625088 -26 9 C-21.81746622 5.63974465 -17.43326457 4.07141154 -12.4375 2.25 C-11.57447266 1.92128906 -10.71144531 1.59257813 -9.82226562 1.25390625 C-8.99275391 0.94839844 -8.16324219 0.64289062 -7.30859375 0.328125 C-6.17635376 -0.09098145 -6.17635376 -0.09098145 -5.02124023 -0.51855469 C-3 -1 -3 -1 0 0 Z " fill="#2EABF8" transform="translate(418,572)"/>
<path d="M0 0 C-2.61890187 1.74593458 -4.40980757 2.5793104 -7.34375 3.5078125 C-8.17777344 3.77207031 -9.01179687 4.03632813 -9.87109375 4.30859375 C-10.73863281 4.57800781 -11.60617188 4.84742188 -12.5 5.125 C-13.80130859 5.54072266 -13.80130859 5.54072266 -15.12890625 5.96484375 C-21.61534021 8 -21.61534021 8 -25 8 C-25 7.34 -25 6.68 -25 6 C-22.14996588 4.98665453 -19.29591336 3.98919371 -16.4375 3 C-15.63763672 2.71382813 -14.83777344 2.42765625 -14.01367188 2.1328125 C-9.12174693 0.45558109 -5.17046121 -0.33313039 0 0 Z " fill="#55A970" transform="translate(213,301)"/>
<path d="M0 0 C-1 2 -1 2 -2.77832031 2.77783203 C-3.53725586 3.01872559 -4.29619141 3.25961914 -5.078125 3.5078125 C-6.32529297 3.90419922 -6.32529297 3.90419922 -7.59765625 4.30859375 C-8.47292969 4.57800781 -9.34820312 4.84742188 -10.25 5.125 C-11.10980469 5.40214844 -11.96960938 5.67929687 -12.85546875 5.96484375 C-17.0740415 7.28436651 -20.54394753 8.15640449 -25 8 C-22.06053693 6.47583396 -19.07258986 5.22903594 -16 4 C-15.38125 3.67 -14.7625 3.34 -14.125 3 C-9.55091808 0.84749086 -5.0555646 -0.30639785 0 0 Z " fill="#2FAEF8" transform="translate(391,581)"/>
<path d="M0 0 C1.2051933 3.61557991 0.74896968 4.14251394 -0.87109375 7.44921875 C-1.48500977 8.72055664 -1.48500977 8.72055664 -2.11132812 10.01757812 C-2.54896484 10.89865234 -2.98660156 11.77972656 -3.4375 12.6875 C-3.87126953 13.58017578 -4.30503906 14.47285156 -4.75195312 15.39257812 C-5.82591129 17.59950314 -6.908839 19.80154313 -8 22 C-8.66 22 -9.32 22 -10 22 C-7.707015 14.04199322 -4.05100513 7.18082279 0 0 Z " fill="#86C26B" transform="translate(237,112)"/>
<path d="M0 0 C0.2475 0.5775 0.495 1.155 0.75 1.75 C2.16683317 4.3002997 3.87627537 6.01785701 6 8 C5.67 8.99 5.34 9.98 5 11 C3.68 9.68 2.36 8.36 1 7 C1 12.28 1 17.56 1 23 C0.67 23 0.34 23 0 23 C0 18.05 0 13.1 0 8 C-0.66 8 -1.32 8 -2 8 C-2 6.68 -2 5.36 -2 4 C-1.34 4 -0.68 4 0 4 C0 2.68 0 1.36 0 0 Z " fill="#84C272" transform="translate(3,305)"/>
<path d="M0 0 C0.66 0 1.32 0 2 0 C1.34240251 5.26770198 0.26735876 10.30133173 -1.0625 15.4375 C-1.24876953 16.16904297 -1.43503906 16.90058594 -1.62695312 17.65429688 C-2.0813758 19.43703198 -2.54022466 21.21863787 -3 23 C-3.66 22.34 -4.32 21.68 -5 21 C-4.61060398 15.11455733 -2.5754456 9.327968 -0.5859375 3.8125 C0.10253396 2.0003044 0.10253396 2.0003044 0 0 Z " fill="#53AB6D" transform="translate(183,256)"/>
<path d="M0 0 C0 0.99 0 1.98 0 3 C-0.79664063 3.38671875 -1.59328125 3.7734375 -2.4140625 4.171875 C-7.84276322 6.83999555 -13.0914257 9.45491856 -18 13 C-18.66 12.34 -19.32 11.68 -20 11 C-17.04205036 9.35347636 -14.0835754 7.70789892 -11.125 6.0625 C-10.28324219 5.59392578 -9.44148438 5.12535156 -8.57421875 4.64257812 C-7.76855469 4.19462891 -6.96289062 3.74667969 -6.1328125 3.28515625 C-5.01737061 2.66459351 -5.01737061 2.66459351 -3.87939453 2.03149414 C-2.59975283 1.32917066 -1.3056006 0.6528003 0 0 Z " fill="#90CB69" transform="translate(331,15)"/>
<path d="M0 0 C0.33 0.99 0.66 1.98 1 3 C0.55269531 3.36351562 0.10539063 3.72703125 -0.35546875 4.1015625 C-4.38793652 7.4547873 -7.76004454 10.87642033 -11 15 C-11.99 14.67 -12.98 14.34 -14 14 C-9.38 9.38 -4.76 4.76 0 0 Z " fill="#319AF6" transform="translate(515,501)"/>
<path d="M0 0 C3.63 0 7.26 0 11 0 C11 0.66 11 1.32 11 2 C8.70967689 2.83719383 6.41789043 3.6698929 4.125 4.5 C3.14853516 4.85771484 3.14853516 4.85771484 2.15234375 5.22265625 C-2.7734375 7 -2.7734375 7 -5 7 C-5 6.34 -5 5.68 -5 5 C-2.03 4.34 0.94 3.68 4 3 C4 2.34 4 1.68 4 1 C2.68 0.67 1.36 0.34 0 0 Z " fill="#8DC072" transform="translate(342,7)"/>
<path d="M0 0 C0.66 0.33 1.32 0.66 2 1 C-1.3 5.95 -4.6 10.9 -8 16 C-8.66 15.67 -9.32 15.34 -10 15 C-7.08785803 9.6237379 -3.75648099 4.82081727 0 0 Z " fill="#3E85F1" transform="translate(398,328)"/>
<path d="M0 0 C-0.33 0.66 -0.66 1.32 -1 2 C-3.5625 2.625 -3.5625 2.625 -6 3 C-6 3.33 -6 3.66 -6 4 C-9.87684087 5.19287411 -12.91621923 6 -17 6 C-17 5.34 -17 4.68 -17 4 C-15.10751181 3.32389577 -13.2108398 2.65949561 -11.3125 2 C-10.25675781 1.62875 -9.20101562 1.2575 -8.11328125 0.875 C-5.21637944 0.0608143 -2.98299377 -0.17709796 0 0 Z " fill="#5AAD6F" transform="translate(187,308)"/>
<path d="M0 0 C0.66 0.66 1.32 1.32 2 2 C0.02 7.94 -1.96 13.88 -4 20 C-4.33 20 -4.66 20 -5 20 C-4.68676801 12.63904818 -3.06085395 6.69116911 0 0 Z " fill="#6AB46C" transform="translate(204,192)"/>
<path d="M0 0 C0.99 0 1.98 0 3 0 C3.19601608 1.74906659 3.38147403 3.49931846 3.5625 5.25 C3.66691406 6.22453125 3.77132813 7.1990625 3.87890625 8.203125 C3.98974468 10.7631352 3.77738092 12.58148159 3 15 C2.34 15 1.68 15 1 15 C0.67 10.05 0.34 5.1 0 0 Z " fill="#5DBB62" transform="translate(0,294)"/>
<path d="M0 0 C1.32229672 3.96689017 0.39032795 6.06722054 -0.75 10.0625 C-1.09546875 11.31160156 -1.4409375 12.56070313 -1.796875 13.84765625 C-3 17 -3 17 -6 19 C-4.3186083 12.51292846 -2.46937673 6.2322365 0 0 Z " fill="#58B068" transform="translate(192,230)"/>
<path d="M0 0 C0.33 0.66 0.66 1.32 1 2 C-2.63 6.95 -6.26 11.9 -10 17 C-10.66 16.67 -11.32 16.34 -12 16 C-8.20663048 10.46845828 -4.40009226 5.06677291 0 0 Z " fill="#8CCB6B" transform="translate(267,65)"/>
<path d="M0 0 C0.66 0.99 1.32 1.98 2 3 C0.23871656 4.36656457 -1.53436088 5.71794085 -3.3125 7.0625 C-4.29863281 7.81660156 -5.28476563 8.57070313 -6.30078125 9.34765625 C-7.19152344 9.89292969 -8.08226563 10.43820313 -9 11 C-9.99 10.67 -10.98 10.34 -12 10 C-10.82630859 9.04287109 -10.82630859 9.04287109 -9.62890625 8.06640625 C-8.61699219 7.24011719 -7.60507813 6.41382813 -6.5625 5.5625 C-5.55316406 4.73878906 -4.54382813 3.91507813 -3.50390625 3.06640625 C-1.70216039 1.58798996 -1.70216039 1.58798996 0 0 Z " fill="#9DCE61" transform="translate(127,54)"/>
<path d="M0 0 C0.66 0.33 1.32 0.66 2 1 C2 1.66 2 2.32 2 3 C1.34 3 0.68 3 0 3 C-0.28875 3.763125 -0.5775 4.52625 -0.875 5.3125 C-2 8 -2 8 -4 11 C-4.99 11 -5.98 11 -7 11 C-7 10.34 -7 9.68 -7 9 C-6.34 9 -5.68 9 -5 9 C-4.731875 8.2575 -4.46375 7.515 -4.1875 6.75 C-3.05770579 4.13363446 -1.79106798 2.19812889 0 0 Z " fill="#2E78EF" transform="translate(405,317)"/>
<path d="M0 0 C4.22419176 1.50863992 5.6874017 4.29984272 8 8 C8.66 8.66 9.32 9.32 10 10 C9.67 10.99 9.34 11.98 9 13 C7.49710267 11.02297434 5.99758658 9.0435417 4.5 7.0625 C4.07074219 6.49853516 3.64148437 5.93457031 3.19921875 5.35351562 C0 1.11328125 0 1.11328125 0 0 Z " fill="#8BC669" transform="translate(56,471)"/>
<path d="M0 0 C1.8133922 3.20010388 2.52213974 6.13283843 3.125 9.75 C3.29257813 10.73484375 3.46015625 11.7196875 3.6328125 12.734375 C3.81457031 13.85585938 3.81457031 13.85585938 4 15 C3.01 15.495 3.01 15.495 2 16 C1.47222137 13.52212405 0.95249746 11.0430336 0.4375 8.5625 C0.28603516 7.85544922 0.13457031 7.14839844 -0.02148438 6.41992188 C-0.39144575 4.62173751 -0.7005656 2.81126406 -1 1 C-0.67 0.67 -0.34 0.34 0 0 Z " fill="#95CE6E" transform="translate(8,359)"/>
<path d="M0 0 C1.34538868 2.69077736 0.74352138 4.08532392 0.125 7 C-0.05804688 7.886875 -0.24109375 8.77375 -0.4296875 9.6875 C-1 12 -1 12 -2 14 C-2.66 14 -3.32 14 -4 14 C-3.52525225 11.85318469 -3.04508251 9.70756772 -2.5625 7.5625 C-2.29566406 6.36753906 -2.02882812 5.17257812 -1.75390625 3.94140625 C-1 1 -1 1 0 0 Z " fill="#54AB6C" transform="translate(245,397)"/>
<path d="M0 0 C0.33 0.66 0.66 1.32 1 2 C-0.98 4.97 -2.96 7.94 -5 11 C-5.66 10.67 -6.32 10.34 -7 10 C-5.15083921 5.93184627 -3.33557632 2.9905167 0 0 Z " fill="#3492F2" transform="translate(404,107)"/>
<path d="M0 0 C0.33 0.66 0.66 1.32 1 2 C0.67 2.66 0.34 3.32 0 4 C1.98 4 3.96 4 6 4 C6 4.66 6 5.32 6 6 C7.32 6.33 8.64 6.66 10 7 C6.7 6.67 3.4 6.34 0 6 C-0.38218767 4.34385343 -0.71395102 2.67542976 -1 1 C-0.67 0.67 -0.34 0.34 0 0 Z " fill="#26A9F3" transform="translate(224,582)"/>
<path d="M0 0 C-0.33 2.31 -0.66 4.62 -1 7 C-3 5 -3 5 -4 2 C-6.31 2.33 -8.62 2.66 -11 3 C-7.11595442 0.41063628 -4.5725325 -0.12358196 0 0 Z " fill="#40A064" transform="translate(276,280)"/>
<path d="M0 0 C0.75 1.625 0.75 1.625 1 4 C-1.96296296 9.59670782 -1.96296296 9.59670782 -5.25 10.875 C-5.8275 10.91625 -6.405 10.9575 -7 11 C-6.401875 10.113125 -5.80375 9.22625 -5.1875 8.3125 C-3.38159753 5.57784769 -1.66104089 2.82376952 0 0 Z " fill="#2C63EF" transform="translate(434,274)"/>
<path d="M0 0 C7.42857143 -0.28571429 7.42857143 -0.28571429 11 2 C10.67 2.33 10.34 2.66 10 3 C8.14227838 2.91015699 6.28752015 2.75388139 4.4375 2.5625 C2.91962891 2.40974609 2.91962891 2.40974609 1.37109375 2.25390625 C0.58863281 2.17011719 -0.19382812 2.08632812 -1 2 C-0.67 1.34 -0.34 0.68 0 0 Z " fill="#95CC6B" transform="translate(324,4)"/>
<path d="M0 0 C0 0.33 0 0.66 0 1 C-0.95712891 1.09087891 -0.95712891 1.09087891 -1.93359375 1.18359375 C-2.75988281 1.26738281 -3.58617187 1.35117187 -4.4375 1.4375 C-5.67306641 1.55931641 -5.67306641 1.55931641 -6.93359375 1.68359375 C-8.98662025 1.78930815 -8.98662025 1.78930815 -10 3 C-12.33944736 2.71269945 -14.6739143 2.38063221 -17 2 C-17 1.67 -17 1.34 -17 1 C-11.33357449 -0.22517308 -5.76291482 -0.09228867 0 0 Z " fill="#8DC36A" transform="translate(273,2)"/>
<path d="M0 0 C0.33 0 0.66 0 1 0 C0.40984815 5.50808397 -0.56663769 10.64878069 -2 16 C-2.66 15.34 -3.32 14.68 -4 14 C-4 13.01 -4 12.02 -4 11 C-3.34 11 -2.68 11 -2 11 C-1.855625 9.9275 -1.71125 8.855 -1.5625 7.75 C-1.16250558 5.08337051 -0.72408076 2.58600271 0 0 Z " fill="#55B164" transform="translate(235,436)"/>
<path d="M0 0 C0.99 0 1.98 0 3 0 C2.745504 1.48206495 2.47088238 2.96068615 2.1875 4.4375 C2.03667969 5.26121094 1.88585937 6.08492188 1.73046875 6.93359375 C1.48941406 7.61550781 1.24835938 8.29742187 1 9 C0.01 9.33 -0.98 9.66 -2 10 C-1.34 6.7 -0.68 3.4 0 0 Z " fill="#47AB67" transform="translate(251,369)"/>
<path d="M0 0 C0.66 0 1.32 0 2 0 C2.72750788 1.40691607 3.43140353 2.82606022 4.125 4.25 C4.51945312 5.03890625 4.91390625 5.8278125 5.3203125 6.640625 C6 9 6 9 5.1171875 11.296875 C4.74851562 11.85890625 4.37984375 12.4209375 4 13 C3.32942113 11.2097939 2.6636531 9.41778511 2 7.625 C1.62875 6.62726563 1.2575 5.62953125 0.875 4.6015625 C0 2 0 2 0 0 Z " fill="#91C86E" transform="translate(24,413)"/>
<path d="M0 0 C0.66 0 1.32 0 2 0 C1.88637738 1.4800841 1.75877092 2.95910074 1.625 4.4375 C1.52058594 5.67306641 1.52058594 5.67306641 1.4140625 6.93359375 C1.27742187 7.61550781 1.14078125 8.29742187 1 9 C0.01 9.495 0.01 9.495 -1 10 C-1.125 3.375 -1.125 3.375 0 0 Z " fill="#7EC173" transform="translate(6,244)"/>
<path d="M0 0 C1 3 1 3 0.22265625 4.82421875 C-0.8515625 6.54947917 -1.92578125 8.27473958 -3 10 C-3.99 9.67 -4.98 9.34 -6 9 C-4.02 6.03 -2.04 3.06 0 0 Z " fill="#2E68EE" transform="translate(461,235)"/>
<path d="M0 0 C1.9451 2.91765 2.45276317 4.62537285 3 8 C2.34 8 1.68 8 1 8 C0.67 8.66 0.34 9.32 0 10 C-1.125 3.375 -1.125 3.375 0 0 Z " fill="#2C6DF2" transform="translate(586,220)"/>
<path d="M0 0 C0.66 0 1.32 0 2 0 C1.45773019 3.79588866 -0.20127563 5.47211993 -3 8 C-3 4.40142046 -2.04169485 2.90548882 0 0 Z " fill="#378AF0" transform="translate(394,120)"/>
<path d="M0 0 C0.99 0.66 1.98 1.32 3 2 C0.69 3.65 -1.62 5.3 -4 7 C-4.33 6.01 -4.66 5.02 -5 4 C-3.35 2.68 -1.7 1.36 0 0 Z " fill="#8CBE6D" transform="translate(114,64)"/>
<path d="M0 0 C0.33 0.99 0.66 1.98 1 3 C-0.28965176 4.37562854 -1.62689293 5.70766393 -3 7 C-3.66 7 -4.32 7 -5 7 C-3.70700306 4.11562221 -2.34058637 2.12780579 0 0 Z " fill="#2A98F5" transform="translate(534,479)"/>
<path d="M0 0 C0.66 0 1.32 0 2 0 C1.01 3.3 0.02 6.6 -1 10 C-1.33 10 -1.66 10 -2 10 C-2.17942163 6.05272412 -2.09350689 3.4019487 0 0 Z " fill="#397CF6" transform="translate(363,186)"/>
</svg>
