<?xml version="1.0" standalone="no"?>
<!DOCTYPE svg PUBLIC "-//W3C//DTD SVG 20010904//EN"
 "http://www.w3.org/TR/2001/REC-SVG-20010904/DTD/svg10.dtd">
<svg version="1.0" xmlns="http://www.w3.org/2000/svg"
 width="598.000000pt" height="598.000000pt" viewBox="0 0 598.000000 598.000000"
 preserveAspectRatio="xMidYMid meet">

<g transform="translate(0.000000,598.000000) scale(0.100000,-0.100000)"
fill="#000000" stroke="none">
<path d="M4076 4918 c-49 -56 -146 -198 -214 -313 -89 -152 -210 -443 -285
-685 -48 -156 -78 -272 -72 -278 2 -2 16 3 33 12 134 69 678 270 962 355 172
51 200 63 200 78 0 9 -3 14 -6 10 -3 -3 -49 60 -101 140 -52 81 -133 203 -181
272 -48 69 -113 164 -144 211 -31 47 -74 109 -96 139 -28 40 -37 61 -34 82 6
42 -11 36 -62 -23z"/>
<path d="M4990 4094 c-30 -8 -56 -18 -58 -23 -3 -8 -119 -180 -258 -381 -43
-63 -129 -189 -191 -280 -114 -167 -231 -339 -483 -710 -261 -385 -455 -672
-486 -721 -17 -27 -37 -57 -45 -66 -17 -22 -51 -82 -47 -84 2 -1 12 -3 24 -4
21 -2 390 -118 432 -135 13 -6 33 -10 45 -10 12 0 84 -20 160 -45 75 -25 144
-45 152 -45 8 0 108 -30 222 -66 275 -87 328 -103 393 -119 30 -8 118 -33 195
-56 77 -23 172 -51 210 -62 39 -11 73 -25 76 -30 4 -5 12 -6 18 -3 6 4 11 2
11 -3 0 -6 -8 -11 -17 -12 -13 0 -14 -2 -4 -6 52 -21 328 447 429 727 156 432
215 844 182 1255 -13 156 -63 434 -100 556 -27 87 -34 100 -82 145 -91 85
-216 143 -390 178 -99 20 -312 20 -388 0z"/>
</g>
</svg>
