<svg xmlns="http://www.w3.org/2000/svg" width="598" height="598" viewBox="0 0 598 598" version="1.1"><path d="M 268.500 1.987 C 263.550 2.441, 255.113 3.754, 249.750 4.906 C 244.387 6.058, 235.613 7.929, 230.250 9.065 C 211.414 13.056, 184.721 22.911, 163.500 33.711 C 152.551 39.284, 149.186 41.280, 133 51.808 C 102.967 71.343, 71.269 103.044, 51.818 133 C 38.788 153.066, 31.960 165.517, 24.671 182.500 C 18.705 196.401, 11.921 217.957, 8.461 234 C 2.663 260.888, 1.657 270.643, 1.749 299.048 C 1.838 326.262, 3.049 339.042, 7.478 359.500 C 8.788 365.550, 10.171 372.075, 10.551 374 C 11.649 379.563, 20.891 406.728, 24.669 415.500 C 35.684 441.073, 55.148 472.670, 70.487 489.880 C 77.646 497.912, 105.050 524.867, 110.041 528.786 C 113.044 531.143, 117.525 534.692, 120 536.673 C 125.163 540.803, 141.622 552, 142.531 552 C 142.866 552, 145.021 553.293, 147.320 554.874 C 152.049 558.125, 175.122 570, 176.710 570 C 177.281 570, 181.742 571.763, 186.624 573.918 C 191.506 576.073, 196.383 577.985, 197.462 578.168 C 199.871 578.576, 199.070 581.246, 212.660 527.500 C 220.265 497.424, 225.994 475.237, 230.089 460 C 232.233 452.025, 234.380 443.475, 234.860 441 C 235.340 438.525, 237.593 429.788, 239.866 421.583 C 242.140 413.379, 244 406.017, 244 405.222 C 244 403.914, 245.719 397.245, 256.046 358.500 C 257.805 351.900, 259.924 343.575, 260.755 340 C 261.586 336.425, 264.168 326.300, 266.493 317.500 C 271.782 297.474, 275.381 282.319, 275.091 281.289 C 274.755 280.096, 273.603 280.417, 244 289.945 C 203.826 302.875, 173.403 312, 170.464 312 C 169.945 312, 173.051 299.365, 176.854 286 C 192.127 232.338, 200.831 204.973, 212.481 174 C 214.859 167.675, 217.268 161.150, 217.833 159.500 C 222.949 144.564, 239.931 108.331, 249.001 93 C 264.832 66.239, 293.420 37.821, 319.144 23.272 C 327.870 18.337, 346.303 10, 348.489 10 C 349.185 10, 350.315 9.325, 351 8.500 C 352.058 7.225, 351.807 7, 349.323 7 C 347.715 7, 338.773 5.906, 329.450 4.569 C 310.524 1.856, 282.766 0.679, 268.500 1.987" stroke="none" fill="#73c066" fill-rule="evenodd"/><path d="M 472.256 66.056 C 463.816 67.721, 446.329 74.320, 438.500 78.794 C 417.313 90.901, 402.108 106.889, 386.947 133 C 372.529 157.832, 357.017 198.912, 349.281 232.750 C 348.575 235.840, 350.705 235.681, 357.779 232.118 C 368.450 226.742, 407.867 211.893, 432 204.158 C 462.224 194.471, 492 187.649, 492 190.411 C 492 191.180, 487.773 197.618, 479.468 209.500 C 476.392 213.900, 472.723 219.300, 471.314 221.500 C 469.906 223.700, 467.951 226.400, 466.972 227.500 C 465.992 228.600, 464.360 230.879, 463.345 232.565 C 462.330 234.251, 458.350 240.285, 454.500 245.972 C 450.650 251.660, 446.375 257.990, 445 260.039 C 442.738 263.410, 439.473 268.132, 427.739 285 C 423.171 291.567, 411.508 308.670, 408 313.947 C 406.625 316.015, 401.346 323.735, 396.268 331.103 C 391.190 338.472, 382.752 350.800, 377.515 358.500 C 372.279 366.200, 366.275 374.975, 364.175 378 C 352.590 394.683, 347.323 402.486, 345.824 405.191 C 344.902 406.853, 343.264 409.178, 342.184 410.357 C 341.104 411.536, 338.646 414.975, 336.721 418 C 334.796 421.025, 331.822 425.249, 330.111 427.388 C 328.400 429.526, 327 431.747, 327 432.323 C 327 432.899, 326.163 434.300, 325.139 435.436 C 324.116 436.571, 319.511 443.125, 314.906 450 C 310.301 456.875, 305.983 463.175, 305.310 464 C 304.638 464.825, 300.318 471.125, 295.712 478 C 291.105 484.875, 282.873 496.984, 277.418 504.910 C 267.829 518.841, 257.502 533.955, 241.142 558 C 236.838 564.325, 230.925 573.006, 228 577.292 C 224.370 582.612, 223.009 585.409, 223.708 586.108 C 224.971 587.371, 248.551 592.283, 264.608 594.628 C 273.148 595.876, 282.984 596.371, 299.500 596.385 C 323.056 596.406, 334.743 595.396, 350.536 591.975 C 355.466 590.908, 361.024 589.789, 362.887 589.490 C 373.998 587.708, 400.720 579.270, 415.500 572.877 C 426.949 567.926, 442.837 559.816, 450.262 555.134 C 462.148 547.638, 475.610 538.659, 478.766 536.124 C 492.423 525.153, 511.391 507.242, 521.474 495.795 C 537.789 477.273, 538.618 476.161, 554.100 452 C 575.908 417.967, 592.184 366.998, 596.091 320.500 C 599.088 284.841, 593.563 241.299, 581.500 205.500 C 575.439 187.513, 569.640 173.694, 568.592 174.741 C 568.208 175.125, 568.154 174.763, 568.471 173.936 C 568.788 173.110, 567.985 170.423, 566.687 167.967 C 557.481 150.546, 555.678 147.376, 554.418 146.390 C 553.638 145.779, 553 144.828, 553 144.277 C 553 142.311, 542.366 126.966, 541.531 127.726 C 541.062 128.152, 540.969 127.992, 541.323 127.372 C 542.036 126.123, 535.503 117, 533.895 117 C 533.338 117, 533.133 116.593, 533.440 116.097 C 534.373 114.588, 512.375 90.534, 499.451 78.931 C 482.263 63.499, 483.133 63.911, 472.256 66.056" stroke="none" fill="#1b8df9" fill-rule="evenodd"/></svg>